# xmcd
#
# Track frame offsets:
#	182
#	10755
#	63510
#	83652
#	106410
#	113860
#	134285
#
# Disc length: 2421 seconds
#
# Revision: 6
# Processed by: cddbd v1.5.2PL0 Copyright (c) Steve Scherf et al.
# Submitted via: Rip'N'TagIt 1.5.0.0 
#
DISCID=52097307
DTITLE=Enigma - MCMXC a.D.
DYEAR=1990
DGENRE=Pop
TTITLE0=The Voice Of Enigma
TTITLE1=Principles Of Lust (Sadeness, Find Love, Sadeness [reprise])
TTITLE2=Callas Went Away
TTITLE3=Mea Culpa
TTITLE4=The Voice and The Snake
TTITLE5=Knocking On Forbidden Doors
TTITLE6=Back To The Rivers Of Belief (Way To Eternity, Hallelujah, The Rivers Of Belief)
EXTD=
EXTT0=
EXTT1=
EXTT2=
EXTT3=
EXTT4=
EXTT5=
EXTT6=
PLAYORDER=
